<?xml version="1.0" encoding="UTF-8"?>
<svg width="98px" height="18px" viewBox="0 0 98 18" version="1.1" xmlns="http://www.w3.org/2000/svg" xmlns:xlink="http://www.w3.org/1999/xlink">
    <!-- Generator: Sketch 48.2 (47327) - http://www.bohemiancoding.com/sketch -->
    <title>Page 1</title>
    <desc>Created with Sketch.</desc>
    <defs>
        <polygon id="path-1" points="0 16.593269 0 0.0217241379 19.1829724 0.0217241379 19.1829724 16.593269"></polygon>
        <polygon id="path-3" points="0.504186207 0.0217241379 13.7360483 0.0217241379 13.7360483 16.593269 0.504186207 16.593269 0.504186207 0.0217241379"></polygon>
        <polygon id="path-5" points="0.187013793 0.0217241379 15.2523931 0.0217241379 15.2523931 16.5934552 0.187013793 16.5934552 0.187013793 0.0217241379"></polygon>
        <polygon id="path-7" points="0.173668966 0.0217241379 14.380252 0.0217241379 14.380252 17.3793103 0.173668966 17.3793103 0.173668966 0.0217241379"></polygon>
        <polygon id="path-9" points="0.491027586 0.0217241379 16.0113103 0.0217241379 16.0113103 17.3793103 8.25116897 17.3793103 0.491027586 17.3793103 0.491027586 0.0217241379"></polygon>
        <polygon id="path-11" points="4.23844138 0.0228211324 0.426786207 0.0228211324 0.426786207 7.2106954 4.23844138 7.2106954 4.23844138 0.0228211324"></polygon>
    </defs>
    <g id="MED-Appointment-with-FAQ" stroke="none" stroke-width="1" fill="none" fill-rule="evenodd" transform="translate(-388.000000, -72.000000)">
        <g id="Navigation-header" transform="translate(358.000000, -7.000000)">
            <g id="Page-1" transform="translate(30.000000, 79.000000)">
                <g id="Group-3" transform="translate(0.000000, 0.599276)">
                    <mask id="mask-2" fill="white">
                        <use xlink:href="#path-1"></use>
                    </mask>
                    <g id="Clip-2"></g>
                    <path d="M18.6733862,16.593269 L15.8765586,16.593269 C15.5947655,16.593269 15.3663517,16.3648552 15.3663517,16.0836828 L15.3663517,8.98547586 L15.4923517,3.88837241 L15.4420759,3.88837241 L11.4628345,16.2394759 C11.3951793,16.4505103 11.1990414,16.593269 10.9780759,16.593269 L8.23028276,16.593269 C8.00869655,16.593269 7.81255862,16.4505103 7.74552414,16.2394759 L3.76628276,3.88837241 L3.7160069,3.88837241 L3.84138621,8.98547586 L3.84138621,16.0836828 C3.84138621,16.3648552 3.6135931,16.593269 3.3318,16.593269 L0.509524138,16.593269 C0.228351724,16.593269 -6.20689655e-05,16.3648552 -6.20689655e-05,16.0836828 L-6.20689655e-05,0.531062069 C-6.20689655e-05,0.249268966 0.228351724,0.0214758621 0.509524138,0.0214758621 L5.77545517,0.0214758621 C5.99952414,0.0214758621 6.19628276,0.166717241 6.26269655,0.380234483 L8.76283448,8.45788966 L9.6920069,11.9734759 L9.74228276,11.9734759 L10.6962828,8.48333793 L13.1722138,0.382096552 C13.2380069,0.167958621 13.4360069,0.0214758621 13.6594552,0.0214758621 L18.6733862,0.0214758621 C18.9551793,0.0214758621 19.1829724,0.249268966 19.1829724,0.531062069 L19.1829724,16.0836828 C19.1829724,16.3648552 18.9551793,16.593269 18.6733862,16.593269" id="Fill-1" fill="#FFFFFF" mask="url(#mask-2)"></path>
                </g>
                <g id="Group-6" transform="translate(22.344828, 0.599276)">
                    <mask id="mask-4" fill="white">
                        <use xlink:href="#path-3"></use>
                    </mask>
                    <g id="Clip-5"></g>
                    <path d="M13.7360483,13.7635448 L13.7360483,16.0836828 C13.7360483,16.3648552 13.5076345,16.593269 13.2264621,16.593269 L1.01377241,16.593269 C0.73197931,16.593269 0.504186207,16.3648552 0.504186207,16.0836828 L0.504186207,0.531062069 C0.504186207,0.249889655 0.73197931,0.0214758621 1.01377241,0.0214758621 L12.8999793,0.0214758621 C13.1811517,0.0214758621 13.4095655,0.249889655 13.4095655,0.531062069 L13.4095655,2.8512 C13.4095655,3.1329931 13.1811517,3.36078621 12.8999793,3.36078621 L5.33253103,3.36078621 C5.05073793,3.36078621 4.82294483,3.5892 4.82294483,3.8709931 L4.82294483,6.21595862 C4.82294483,6.49713103 5.05073793,6.72554483 5.33253103,6.72554483 L10.840531,6.72554483 C11.1223241,6.72554483 11.3501172,6.95395862 11.3501172,7.23513103 L11.3501172,9.35416552 C11.3501172,9.63595862 11.1223241,9.86375172 10.840531,9.86375172 L5.33253103,9.86375172 C5.05073793,9.86375172 4.82294483,10.0921655 4.82294483,10.3739586 L4.82294483,12.7437517 C4.82294483,13.0255448 5.05073793,13.2539586 5.33253103,13.2539586 L13.2264621,13.2539586 C13.5076345,13.2539586 13.7360483,13.4817517 13.7360483,13.7635448" id="Fill-4" fill="#FFFFFF" mask="url(#mask-4)"></path>
                </g>
                <g id="Group-9" transform="translate(39.103448, 0.599276)">
                    <mask id="mask-6" fill="white">
                        <use xlink:href="#path-5"></use>
                    </mask>
                    <g id="Clip-8"></g>
                    <path d="M13.1811517,2.1680069 C11.8001172,0.736696552 9.81204828,0.021662069 7.21756552,0.021662069 L0.69722069,0.021662069 C0.415427586,0.021662069 0.187013793,0.249455172 0.187013793,0.531248276 L0.187013793,2.77566207 C0.187013793,3.05745517 0.415427586,3.28524828 0.69722069,3.28524828 L4.50577241,3.28524828 L4.61253103,3.28524828 L6.79053103,3.28524828 C8.18025517,3.28524828 9.20128966,3.70421379 9.85425517,4.54090345 C10.5066,5.37821379 10.8330828,6.63324828 10.8330828,8.30724828 C10.8330828,9.98124828 10.5066,11.2369034 9.85425517,12.0735931 C9.20128966,12.9109034 8.18025517,13.3292483 6.79053103,13.3292483 L4.61253103,13.3292483 L4.50577241,13.3292483 L0.69722069,13.3292483 C0.415427586,13.3292483 0.187013793,13.5576621 0.187013793,13.8388345 L0.187013793,16.0832483 C0.187013793,16.3650414 0.415427586,16.5934552 0.69722069,16.5934552 L7.21756552,16.5934552 C9.81204828,16.5934552 11.8001172,15.8771793 13.1811517,14.4464897 C14.5621862,13.0151793 15.2523931,10.9687655 15.2523931,8.30724828 C15.2523931,5.64573103 14.5621862,3.59931724 13.1811517,2.1680069" id="Fill-7" fill="#FFFFFF" mask="url(#mask-6)"></path>
                </g>
                <path d="M39.3246621,12.0264207 L39.3246621,5.78662759 C39.3246621,5.61469655 39.4636966,5.47504138 39.6356276,5.47504138 L41.8620414,5.47504138 C42.0339724,5.47504138 42.1736276,5.61469655 42.1736276,5.78662759 L42.1736276,12.0264207 C42.1736276,12.1983517 42.0339724,12.3373862 41.8620414,12.3373862 L39.6356276,12.3373862 C39.4636966,12.3373862 39.3246621,12.1983517 39.3246621,12.0264207" id="Fill-10" fill="#FFFFFF"></path>
                <path d="M37.4201379,7.48185517 L44.0782759,7.48185517 C44.2495862,7.48185517 44.3892414,7.62151034 44.3892414,7.79282069 L44.3892414,10.0198552 C44.3892414,10.1917862 44.2495862,10.3308207 44.0782759,10.3308207 L37.4201379,10.3308207 C37.2482069,10.3308207 37.1091724,10.1917862 37.1091724,10.0198552 L37.1091724,7.79282069 C37.1091724,7.62151034 37.2482069,7.48185517 37.4201379,7.48185517" id="Fill-12" fill="#FFFFFF"></path>
                <g id="Group-16" transform="translate(64.551724, 0.599276)">
                    <mask id="mask-8" fill="white">
                        <use xlink:href="#path-7"></use>
                    </mask>
                    <g id="Clip-15"></g>
                    <path d="M12.0809793,16.1923034 C10.8991862,16.9836828 9.48215172,17.3796828 7.83173793,17.3796828 C6.29987586,17.3796828 4.95608276,17.0258897 3.79849655,16.3201655 C2.64153103,15.6138207 1.74711724,14.6058207 1.11835862,13.2949241 C0.488358621,11.9846483 0.173668966,10.4534069 0.173668966,8.69995862 C0.173668966,6.94775172 0.488358621,5.41651034 1.11835862,4.10561379 C1.74711724,2.79533793 2.64153103,1.78733793 3.79849655,1.0809931 C4.95608276,0.374648276 6.29056552,0.0214758621 7.80566897,0.0214758621 C10.9227724,0.0214758621 13.0207034,1.20823448 14.0988414,3.58175172 C14.2459448,3.90513103 14.1143586,4.28871724 13.7928414,4.43892414 L13.7078069,4.47926897 C13.3869103,4.62947586 13.0014621,4.48982069 12.8599448,4.16582069 C12.469531,3.27202759 11.9214621,2.57933793 11.2138759,2.0889931 C10.3542207,1.49375172 9.24442759,1.1952 7.88201379,1.1952 C6.62325517,1.1952 5.51222069,1.49809655 4.5513931,2.1014069 C3.58994483,2.70595862 2.84449655,3.57368276 2.31815172,4.7052 C1.78932414,5.83733793 1.52677241,7.16871724 1.52677241,8.69995862 C1.52677241,10.2318207 1.7856,11.5632 2.30511724,12.6953379 C2.82401379,13.8268552 3.55642759,14.6952 4.50049655,15.299131 C5.44456552,15.9030621 6.55497931,16.2053379 7.83173793,16.2053379 C9.19228966,16.2053379 10.3492552,15.873269 11.3032552,15.2097517 C12.1039448,14.6523724 12.7004276,13.8957517 13.0920828,12.9417517 C13.2205655,12.6295448 13.5830483,12.4861655 13.8989793,12.6059586 L13.9691172,12.6326483 C14.3154621,12.7642345 14.4731172,13.1620966 14.3241517,13.5009931 C13.8288414,14.6263034 13.081531,15.5232 12.0809793,16.1923034" id="Fill-14" fill="#FFFFFF" mask="url(#mask-8)"></path>
                </g>
                <g id="Group-19" transform="translate(81.310345, 0.599276)">
                    <mask id="mask-10" fill="white">
                        <use xlink:href="#path-9"></use>
                    </mask>
                    <g id="Clip-18"></g>
                    <path d="M4.84392414,2.10165517 C3.88247586,2.7062069 3.1419931,3.57393103 2.62309655,4.70544828 C2.10357931,5.83758621 1.84413103,7.16896552 1.84413103,8.7002069 C1.84413103,10.232069 2.10357931,11.5634483 2.62309655,12.6955862 C3.1419931,13.8271034 3.88247586,14.6954483 4.84392414,15.2987586 C5.80475172,15.9033103 6.94061379,16.2049655 8.25151034,16.2049655 C9.56178621,16.2049655 10.7019931,15.9033103 11.672131,15.2987586 C12.642269,14.6954483 13.3864759,13.8271034 13.9059931,12.6955862 C14.424269,11.5634483 14.6843379,10.232069 14.6843379,8.7002069 C14.6843379,7.16896552 14.424269,5.83758621 13.9059931,4.70544828 C13.3864759,3.57393103 12.642269,2.7062069 11.672131,2.10165517 C10.7019931,1.49772414 9.56178621,1.19544828 8.25151034,1.19544828 C6.94061379,1.19544828 5.80475172,1.49772414 4.84392414,2.10165517 M12.374131,1.08062069 C13.5391655,1.78696552 14.4373034,2.79062069 15.0673034,4.09282759 C15.6960621,5.39503448 16.0113724,6.93062069 16.0113724,8.7002069 C16.0113724,10.4704138 15.6960621,12.006 15.0673034,13.3075862 C14.4373034,14.6097931 13.5391655,15.614069 12.374131,16.3197931 C11.2084759,17.0261379 9.83426897,17.3793103 8.25151034,17.3793103 C6.66937241,17.3793103 5.29454483,17.0261379 4.12888966,16.3197931 C2.96323448,15.614069 2.06509655,14.6097931 1.43633793,13.3075862 C0.806337931,12.006 0.491027586,10.4704138 0.491027586,8.7002069 C0.491027586,6.93062069 0.806337931,5.39503448 1.43633793,4.09282759 C2.06509655,2.79062069 2.96323448,1.78696552 4.12888966,1.08062069 C5.29454483,0.374896552 6.66937241,0.0211034483 8.25151034,0.0211034483 C9.83426897,0.0211034483 11.2084759,0.374896552 12.374131,1.08062069" id="Fill-17" fill="#FFFFFF" mask="url(#mask-10)"></path>
                </g>
                <g id="Group-22" transform="translate(57.103448, 0.599276)">
                    <mask id="mask-12" fill="white">
                        <use xlink:href="#path-11"></use>
                    </mask>
                    <g id="Clip-21"></g>
                    <path d="M4.23844138,7.2106954 L4.23844138,2.02443005 C4.23844138,0.919235213 3.3849931,0.0226907259 2.33230345,0.0226907259 C1.27961379,0.0226907259 0.426786207,0.919235213 0.426786207,2.02443005 L0.426786207,7.2106954 L4.23844138,7.2106954 Z" id="Fill-20" fill="#FFFFFF" mask="url(#mask-12)"></path>
                </g>
                <path d="M57.5301724,10 L57.5301724,15.1946866 C57.5301724,16.2981671 58.3836207,17.1927931 59.4356897,17.1927931 C60.4883793,17.1927931 61.3418276,16.2981671 61.3418276,15.1946866 L61.3418276,10 L57.5301724,10 Z" id="Fill-23" fill="#FFFFFF"></path>
            </g>
        </g>
    </g>
</svg>